<mxfile host="app.diagrams.net" modified="2023-11-17T18:44:15.718Z" agent="Mozilla/5.0 (X11; Ubuntu; Linux x86_64; rv:109.0) Gecko/20100101 Firefox/118.0" etag="uovNlCasZJ8QOQIdiPPt" version="22.1.3" type="device">
  <diagram name="Página-1" id="gSkes7LC5rxwppdU8-W0">
    <mxGraphModel dx="1281" dy="703" grid="1" gridSize="10" guides="1" tooltips="1" connect="1" arrows="1" fold="1" page="1" pageScale="1" pageWidth="827" pageHeight="1169" math="0" shadow="0">
      <root>
        <mxCell id="0" />
        <mxCell id="1" parent="0" />
        <UserObject label="&lt;font style=&quot;font-size: 27px;&quot;&gt;TBL&lt;/font&gt;" placeholders="1" name="Variable" id="KOWkEeIVN-b_AemoHxq0-1">
          <mxCell style="text;html=1;strokeColor=#6c8ebf;fillColor=#dae8fc;align=center;verticalAlign=middle;whiteSpace=wrap;overflow=hidden;" parent="1" vertex="1">
            <mxGeometry x="223" y="20" width="381" height="70" as="geometry" />
          </mxCell>
        </UserObject>
        <mxCell id="KOWkEeIVN-b_AemoHxq0-2" value="" style="shape=table;startSize=0;container=1;collapsible=0;childLayout=tableLayout;fontSize=16;" parent="1" vertex="1">
          <mxGeometry x="90" y="180" width="730" height="340" as="geometry" />
        </mxCell>
        <mxCell id="KOWkEeIVN-b_AemoHxq0-3" value="" style="shape=tableRow;horizontal=0;startSize=0;swimlaneHead=0;swimlaneBody=0;strokeColor=inherit;top=0;left=0;bottom=0;right=0;collapsible=0;dropTarget=0;fillColor=none;points=[[0,0.5],[1,0.5]];portConstraint=eastwest;fontSize=16;" parent="KOWkEeIVN-b_AemoHxq0-2" vertex="1">
          <mxGeometry width="730" height="84" as="geometry" />
        </mxCell>
        <mxCell id="zROS_FCFO0HVmCwk9wE0-1" value="&lt;div&gt;Dirección virtual (entre 0 y 2³⁸ - 1)&lt;/div&gt;" style="shape=partialRectangle;html=1;whiteSpace=wrap;connectable=0;strokeColor=inherit;overflow=hidden;fillColor=none;top=0;left=0;bottom=0;right=0;pointerEvents=1;fontSize=16;" vertex="1" parent="KOWkEeIVN-b_AemoHxq0-3">
          <mxGeometry width="266" height="84" as="geometry">
            <mxRectangle width="266" height="84" as="alternateBounds" />
          </mxGeometry>
        </mxCell>
        <mxCell id="KOWkEeIVN-b_AemoHxq0-4" value="1 o 0" style="shape=partialRectangle;html=1;whiteSpace=wrap;connectable=0;strokeColor=inherit;overflow=hidden;fillColor=none;top=0;left=0;bottom=0;right=0;pointerEvents=1;fontSize=16;" parent="KOWkEeIVN-b_AemoHxq0-3" vertex="1">
          <mxGeometry x="266" width="66" height="84" as="geometry">
            <mxRectangle width="66" height="84" as="alternateBounds" />
          </mxGeometry>
        </mxCell>
        <mxCell id="KOWkEeIVN-b_AemoHxq0-5" value="1 o 0" style="shape=partialRectangle;html=1;whiteSpace=wrap;connectable=0;strokeColor=inherit;overflow=hidden;fillColor=none;top=0;left=0;bottom=0;right=0;pointerEvents=1;fontSize=16;" parent="KOWkEeIVN-b_AemoHxq0-3" vertex="1">
          <mxGeometry x="332" width="66" height="84" as="geometry">
            <mxRectangle width="66" height="84" as="alternateBounds" />
          </mxGeometry>
        </mxCell>
        <mxCell id="KOWkEeIVN-b_AemoHxq0-6" value="&lt;div&gt;Dirección física (entre 0 y 2¹⁹ - 1)&lt;/div&gt;&lt;div&gt;Si D = 1 o V = 0 se ignora el valor de este slot&lt;/div&gt;" style="shape=partialRectangle;html=1;whiteSpace=wrap;connectable=0;strokeColor=inherit;overflow=hidden;fillColor=none;top=0;left=0;bottom=0;right=0;pointerEvents=1;fontSize=16;" parent="KOWkEeIVN-b_AemoHxq0-3" vertex="1">
          <mxGeometry x="398" width="332" height="84" as="geometry">
            <mxRectangle width="332" height="84" as="alternateBounds" />
          </mxGeometry>
        </mxCell>
        <mxCell id="KOWkEeIVN-b_AemoHxq0-7" value="" style="shape=tableRow;horizontal=0;startSize=0;swimlaneHead=0;swimlaneBody=0;strokeColor=inherit;top=0;left=0;bottom=0;right=0;collapsible=0;dropTarget=0;fillColor=none;points=[[0,0.5],[1,0.5]];portConstraint=eastwest;fontSize=16;" parent="KOWkEeIVN-b_AemoHxq0-2" vertex="1">
          <mxGeometry y="84" width="730" height="87" as="geometry" />
        </mxCell>
        <mxCell id="zROS_FCFO0HVmCwk9wE0-2" value="Dirección virtual (entre 0 y 2³⁸ - 1)" style="shape=partialRectangle;html=1;whiteSpace=wrap;connectable=0;strokeColor=inherit;overflow=hidden;fillColor=none;top=0;left=0;bottom=0;right=0;pointerEvents=1;fontSize=16;" vertex="1" parent="KOWkEeIVN-b_AemoHxq0-7">
          <mxGeometry width="266" height="87" as="geometry">
            <mxRectangle width="266" height="87" as="alternateBounds" />
          </mxGeometry>
        </mxCell>
        <mxCell id="KOWkEeIVN-b_AemoHxq0-8" value="1 o 0" style="shape=partialRectangle;html=1;whiteSpace=wrap;connectable=0;strokeColor=inherit;overflow=hidden;fillColor=none;top=0;left=0;bottom=0;right=0;pointerEvents=1;fontSize=16;" parent="KOWkEeIVN-b_AemoHxq0-7" vertex="1">
          <mxGeometry x="266" width="66" height="87" as="geometry">
            <mxRectangle width="66" height="87" as="alternateBounds" />
          </mxGeometry>
        </mxCell>
        <mxCell id="KOWkEeIVN-b_AemoHxq0-9" value="1 o 0" style="shape=partialRectangle;html=1;whiteSpace=wrap;connectable=0;strokeColor=inherit;overflow=hidden;fillColor=none;top=0;left=0;bottom=0;right=0;pointerEvents=1;fontSize=16;" parent="KOWkEeIVN-b_AemoHxq0-7" vertex="1">
          <mxGeometry x="332" width="66" height="87" as="geometry">
            <mxRectangle width="66" height="87" as="alternateBounds" />
          </mxGeometry>
        </mxCell>
        <mxCell id="KOWkEeIVN-b_AemoHxq0-10" value="&lt;div&gt;Dirección física (entre 0 y 2¹⁹ - 1)&lt;/div&gt;&amp;nbsp;Si D = 1 o V = 0 se ignora el valor de este slot" style="shape=partialRectangle;html=1;whiteSpace=wrap;connectable=0;strokeColor=inherit;overflow=hidden;fillColor=none;top=0;left=0;bottom=0;right=0;pointerEvents=1;fontSize=16;" parent="KOWkEeIVN-b_AemoHxq0-7" vertex="1">
          <mxGeometry x="398" width="332" height="87" as="geometry">
            <mxRectangle width="332" height="87" as="alternateBounds" />
          </mxGeometry>
        </mxCell>
        <mxCell id="KOWkEeIVN-b_AemoHxq0-11" value="" style="shape=tableRow;horizontal=0;startSize=0;swimlaneHead=0;swimlaneBody=0;strokeColor=inherit;top=0;left=0;bottom=0;right=0;collapsible=0;dropTarget=0;fillColor=none;points=[[0,0.5],[1,0.5]];portConstraint=eastwest;fontSize=16;" parent="KOWkEeIVN-b_AemoHxq0-2" vertex="1">
          <mxGeometry y="171" width="730" height="85" as="geometry" />
        </mxCell>
        <mxCell id="zROS_FCFO0HVmCwk9wE0-3" style="shape=partialRectangle;html=1;whiteSpace=wrap;connectable=0;strokeColor=inherit;overflow=hidden;fillColor=none;top=0;left=0;bottom=0;right=0;pointerEvents=1;fontSize=16;" vertex="1" parent="KOWkEeIVN-b_AemoHxq0-11">
          <mxGeometry width="266" height="85" as="geometry">
            <mxRectangle width="266" height="85" as="alternateBounds" />
          </mxGeometry>
        </mxCell>
        <mxCell id="KOWkEeIVN-b_AemoHxq0-12" value="..." style="shape=partialRectangle;html=1;whiteSpace=wrap;connectable=0;strokeColor=inherit;overflow=hidden;fillColor=none;top=0;left=0;bottom=0;right=0;pointerEvents=1;fontSize=16;" parent="KOWkEeIVN-b_AemoHxq0-11" vertex="1">
          <mxGeometry x="266" width="66" height="85" as="geometry">
            <mxRectangle width="66" height="85" as="alternateBounds" />
          </mxGeometry>
        </mxCell>
        <mxCell id="KOWkEeIVN-b_AemoHxq0-13" value="..." style="shape=partialRectangle;html=1;whiteSpace=wrap;connectable=0;strokeColor=inherit;overflow=hidden;fillColor=none;top=0;left=0;bottom=0;right=0;pointerEvents=1;fontSize=16;" parent="KOWkEeIVN-b_AemoHxq0-11" vertex="1">
          <mxGeometry x="332" width="66" height="85" as="geometry">
            <mxRectangle width="66" height="85" as="alternateBounds" />
          </mxGeometry>
        </mxCell>
        <mxCell id="KOWkEeIVN-b_AemoHxq0-14" value="..." style="shape=partialRectangle;html=1;whiteSpace=wrap;connectable=0;strokeColor=inherit;overflow=hidden;fillColor=none;top=0;left=0;bottom=0;right=0;pointerEvents=1;fontSize=16;" parent="KOWkEeIVN-b_AemoHxq0-11" vertex="1">
          <mxGeometry x="398" width="332" height="85" as="geometry">
            <mxRectangle width="332" height="85" as="alternateBounds" />
          </mxGeometry>
        </mxCell>
        <mxCell id="KOWkEeIVN-b_AemoHxq0-15" style="shape=tableRow;horizontal=0;startSize=0;swimlaneHead=0;swimlaneBody=0;strokeColor=inherit;top=0;left=0;bottom=0;right=0;collapsible=0;dropTarget=0;fillColor=none;points=[[0,0.5],[1,0.5]];portConstraint=eastwest;fontSize=16;" parent="KOWkEeIVN-b_AemoHxq0-2" vertex="1">
          <mxGeometry y="256" width="730" height="84" as="geometry" />
        </mxCell>
        <mxCell id="zROS_FCFO0HVmCwk9wE0-4" value="Dirección virtual (entre 0 y 2³⁸ - 1)" style="shape=partialRectangle;html=1;whiteSpace=wrap;connectable=0;strokeColor=inherit;overflow=hidden;fillColor=none;top=0;left=0;bottom=0;right=0;pointerEvents=1;fontSize=16;" vertex="1" parent="KOWkEeIVN-b_AemoHxq0-15">
          <mxGeometry width="266" height="84" as="geometry">
            <mxRectangle width="266" height="84" as="alternateBounds" />
          </mxGeometry>
        </mxCell>
        <mxCell id="KOWkEeIVN-b_AemoHxq0-16" value="1 o 0" style="shape=partialRectangle;html=1;whiteSpace=wrap;connectable=0;strokeColor=inherit;overflow=hidden;fillColor=none;top=0;left=0;bottom=0;right=0;pointerEvents=1;fontSize=16;" parent="KOWkEeIVN-b_AemoHxq0-15" vertex="1">
          <mxGeometry x="266" width="66" height="84" as="geometry">
            <mxRectangle width="66" height="84" as="alternateBounds" />
          </mxGeometry>
        </mxCell>
        <mxCell id="KOWkEeIVN-b_AemoHxq0-17" value="1 o 0" style="shape=partialRectangle;html=1;whiteSpace=wrap;connectable=0;strokeColor=inherit;overflow=hidden;fillColor=none;top=0;left=0;bottom=0;right=0;pointerEvents=1;fontSize=16;" parent="KOWkEeIVN-b_AemoHxq0-15" vertex="1">
          <mxGeometry x="332" width="66" height="84" as="geometry">
            <mxRectangle width="66" height="84" as="alternateBounds" />
          </mxGeometry>
        </mxCell>
        <mxCell id="KOWkEeIVN-b_AemoHxq0-18" value="&lt;div&gt;Dirección física (entre 0 y 2¹⁹ - 1)&amp;nbsp;&lt;/div&gt;&lt;div&gt;Si D = 1 o V = 0 se ignora el valor de este slot&lt;/div&gt;" style="shape=partialRectangle;html=1;whiteSpace=wrap;connectable=0;strokeColor=inherit;overflow=hidden;fillColor=none;top=0;left=0;bottom=0;right=0;pointerEvents=1;fontSize=16;" parent="KOWkEeIVN-b_AemoHxq0-15" vertex="1">
          <mxGeometry x="398" width="332" height="84" as="geometry">
            <mxRectangle width="332" height="84" as="alternateBounds" />
          </mxGeometry>
        </mxCell>
        <UserObject label="&lt;font style=&quot;font-size: 18px;&quot;&gt;Dirección página física&lt;/font&gt;" placeholders="1" name="Variable" id="KOWkEeIVN-b_AemoHxq0-19">
          <mxCell style="text;html=1;strokeColor=#b85450;fillColor=#f8cecc;align=center;verticalAlign=middle;whiteSpace=wrap;overflow=hidden;" parent="1" vertex="1">
            <mxGeometry x="530" y="120" width="270" height="40" as="geometry" />
          </mxCell>
        </UserObject>
        <UserObject label="&lt;font style=&quot;font-size: 18px;&quot;&gt;Dirección página virtual&lt;/font&gt;" placeholders="1" name="Variable" id="KOWkEeIVN-b_AemoHxq0-20">
          <mxCell style="text;html=1;strokeColor=#b85450;fillColor=#f8cecc;align=center;verticalAlign=middle;whiteSpace=wrap;overflow=hidden;" parent="1" vertex="1">
            <mxGeometry x="110" y="120" width="230" height="40" as="geometry" />
          </mxCell>
        </UserObject>
        <UserObject label="&lt;font style=&quot;font-size: 18px;&quot;&gt;D&lt;/font&gt;" placeholders="1" name="Variable" id="KOWkEeIVN-b_AemoHxq0-21">
          <mxCell style="text;html=1;strokeColor=#b85450;fillColor=#f8cecc;align=center;verticalAlign=middle;whiteSpace=wrap;overflow=hidden;" parent="1" vertex="1">
            <mxGeometry x="440" y="120" width="55" height="40" as="geometry" />
          </mxCell>
        </UserObject>
        <UserObject label="&lt;font style=&quot;font-size: 18px;&quot;&gt;V&lt;/font&gt;" placeholders="1" name="Variable" id="KOWkEeIVN-b_AemoHxq0-22">
          <mxCell style="text;html=1;strokeColor=#b85450;fillColor=#f8cecc;align=center;verticalAlign=middle;whiteSpace=wrap;overflow=hidden;" parent="1" vertex="1">
            <mxGeometry x="370" y="120" width="56" height="40" as="geometry" />
          </mxCell>
        </UserObject>
        <UserObject label="&lt;font style=&quot;font-size: 27px;&quot;&gt;a&lt;/font&gt;" placeholders="1" name="Variable" id="KOWkEeIVN-b_AemoHxq0-27">
          <mxCell style="text;html=1;strokeColor=#d6b656;fillColor=#fff2cc;align=center;verticalAlign=middle;whiteSpace=wrap;overflow=hidden;" parent="1" vertex="1">
            <mxGeometry x="40" y="20" width="80" height="70" as="geometry" />
          </mxCell>
        </UserObject>
        <UserObject label="&lt;font style=&quot;font-size: 17px;&quot;&gt;Slot&lt;/font&gt;" placeholders="1" name="Variable" id="zROS_FCFO0HVmCwk9wE0-6">
          <mxCell style="text;html=1;strokeColor=#b85450;fillColor=#f8cecc;align=center;verticalAlign=middle;whiteSpace=wrap;overflow=hidden;" vertex="1" parent="1">
            <mxGeometry x="3.75" y="120" width="75" height="40" as="geometry" />
          </mxCell>
        </UserObject>
        <UserObject label="&lt;font style=&quot;font-size: 20px;&quot;&gt;1&lt;/font&gt;" placeholders="1" name="Variable" id="zROS_FCFO0HVmCwk9wE0-7">
          <mxCell style="text;html=1;strokeColor=none;fillColor=none;align=center;verticalAlign=middle;whiteSpace=wrap;overflow=hidden;" vertex="1" parent="1">
            <mxGeometry y="210" width="30" height="30" as="geometry" />
          </mxCell>
        </UserObject>
        <UserObject label="&lt;font style=&quot;font-size: 20px;&quot;&gt;2&lt;/font&gt;" placeholders="1" name="Variable" id="zROS_FCFO0HVmCwk9wE0-8">
          <mxCell style="text;html=1;strokeColor=none;fillColor=none;align=center;verticalAlign=middle;whiteSpace=wrap;overflow=hidden;" vertex="1" parent="1">
            <mxGeometry y="290" width="40" height="30" as="geometry" />
          </mxCell>
        </UserObject>
        <UserObject label="&lt;font style=&quot;font-size: 20px;&quot;&gt;128&lt;/font&gt;" placeholders="1" name="Variable" id="zROS_FCFO0HVmCwk9wE0-9">
          <mxCell style="text;html=1;strokeColor=none;fillColor=none;align=center;verticalAlign=middle;whiteSpace=wrap;overflow=hidden;" vertex="1" parent="1">
            <mxGeometry y="460" width="40" height="30" as="geometry" />
          </mxCell>
        </UserObject>
        <mxCell id="zROS_FCFO0HVmCwk9wE0-11" value="" style="endArrow=classic;html=1;rounded=0;exitX=1;exitY=0.5;exitDx=0;exitDy=0;" edge="1" parent="1" source="zROS_FCFO0HVmCwk9wE0-9">
          <mxGeometry width="50" height="50" relative="1" as="geometry">
            <mxPoint x="70" y="480" as="sourcePoint" />
            <mxPoint x="90" y="475" as="targetPoint" />
          </mxGeometry>
        </mxCell>
        <mxCell id="zROS_FCFO0HVmCwk9wE0-12" value="" style="endArrow=classic;html=1;rounded=0;exitX=1;exitY=0.5;exitDx=0;exitDy=0;" edge="1" parent="1" source="zROS_FCFO0HVmCwk9wE0-8">
          <mxGeometry width="50" height="50" relative="1" as="geometry">
            <mxPoint x="70" y="310" as="sourcePoint" />
            <mxPoint x="90" y="305" as="targetPoint" />
          </mxGeometry>
        </mxCell>
        <mxCell id="zROS_FCFO0HVmCwk9wE0-14" value="" style="endArrow=classic;html=1;rounded=0;" edge="1" parent="1" target="KOWkEeIVN-b_AemoHxq0-3">
          <mxGeometry width="50" height="50" relative="1" as="geometry">
            <mxPoint x="40" y="222" as="sourcePoint" />
            <mxPoint x="130" y="495" as="targetPoint" />
          </mxGeometry>
        </mxCell>
      </root>
    </mxGraphModel>
  </diagram>
</mxfile>
